# xmcd CD database file
#
# Track frame offsets:
#	150
#	30502
#	60653
#	90153
#	123370
#	151936
#	216500
#	247850
#
# Disc length: 3653 seconds
#
# Revision: 1
# Processed by: cddbd v1.5.2PL0 Copyright (c) Steve Scherf et al.
# Submitted via: CDex 1.51
#
DISCID=5b0e4308
DTITLE=D¿em - Akustycznie
DYEAR=1900
DGENRE=Blues
TTITLE0=Jesiony
TTITLE1=Autsajder
TTITLE2=Zloty Paw
TTITLE3=Mala Aleja Roz
TTITLE4=Czerwony Jak Cegla
TTITLE5=Detox
TTITLE6=List Do M.
TTITLE7=Wehikul Czasu
EXTD=
EXTT0=
EXTT1=
EXTT2=
EXTT3=
EXTT4=
EXTT5=
EXTT6=
EXTT7=
PLAYORDER=
